<svg width="323" height="77" viewBox="0 0 323 77" fill="none" xmlns="http://www.w3.org/2000/svg">
<g clip-path="url(#clip0_33_18)">
<path d="M33.7472 27.0909C33.4744 24.7879 32.3684 23 30.429 21.7273C28.4896 20.4545 26.1108 19.8182 23.2926 19.8182C21.232 19.8182 19.429 20.1515 17.8835 20.8182C16.3532 21.4848 15.1563 22.4015 14.2926 23.5682C13.4441 24.7348 13.0199 26.0606 13.0199 27.5455C13.0199 28.7879 13.3153 29.8561 13.9062 30.75C14.5123 31.6288 15.285 32.3636 16.2244 32.9545C17.1638 33.5303 18.1487 34.0076 19.179 34.3864C20.2093 34.75 21.1562 35.0455 22.0199 35.2727L26.7472 36.5455C27.9593 36.8636 29.3078 37.303 30.7926 37.8636C32.2926 38.4242 33.7244 39.1894 35.0881 40.1591C36.4669 41.1136 37.6032 42.3409 38.4972 43.8409C39.3911 45.3409 39.8381 47.1818 39.8381 49.3636C39.8381 51.8788 39.179 54.1515 37.8608 56.1818C36.5578 58.2121 34.6487 59.8258 32.1335 61.0227C29.6335 62.2197 26.5956 62.8182 23.0199 62.8182C19.6866 62.8182 16.8002 62.2803 14.3608 61.2045C11.9366 60.1288 10.0275 58.6288 8.63352 56.7045C7.25473 54.7803 6.47443 52.5455 6.29261 50H12.1108C12.2623 51.7576 12.8532 53.2121 13.8835 54.3636C14.929 55.5 16.2472 56.3485 17.8381 56.9091C19.4441 57.4545 21.1714 57.7273 23.0199 57.7273C25.1714 57.7273 27.1032 57.3788 28.8153 56.6818C30.5275 55.9697 31.8835 54.9848 32.8835 53.7273C33.8835 52.4545 34.3835 50.9697 34.3835 49.2727C34.3835 47.7273 33.9517 46.4697 33.0881 45.5C32.2244 44.5303 31.0881 43.7424 29.679 43.1364C28.2699 42.5303 26.7472 42 25.1108 41.5455L19.3835 39.9091C15.7472 38.8636 12.8684 37.3712 10.7472 35.4318C8.62595 33.4924 7.56534 30.9545 7.56534 27.8182C7.56534 25.2121 8.26989 22.9394 9.67898 21C11.1032 19.0455 13.0123 17.5303 15.4062 16.4545C17.8153 15.3636 20.5047 14.8182 23.4744 14.8182C26.4744 14.8182 29.1411 15.3561 31.4744 16.4318C33.8078 17.4924 35.6563 18.947 37.0199 20.7955C38.3987 22.6439 39.1259 24.7424 39.2017 27.0909H33.7472ZM48.3778 62V27.0909H53.7415V62H48.3778ZM51.1051 21.2727C50.0597 21.2727 49.1581 20.9167 48.4006 20.2045C47.6581 19.4924 47.2869 18.6364 47.2869 17.6364C47.2869 16.6364 47.6581 15.7803 48.4006 15.0682C49.1581 14.3561 50.0597 14 51.1051 14C52.1506 14 53.0445 14.3561 53.7869 15.0682C54.5445 15.7803 54.9233 16.6364 54.9233 17.6364C54.9233 18.6364 54.5445 19.4924 53.7869 20.2045C53.0445 20.9167 52.1506 21.2727 51.1051 21.2727ZM68.929 15.4545V62H63.5653V15.4545H68.929ZM107.298 27.0909L94.3892 62H88.9347L76.0256 27.0909H81.8438L91.4801 54.9091H91.8438L101.48 27.0909H107.298ZM117.832 75.0909C116.923 75.0909 116.113 75.0152 115.401 74.8636C114.688 74.7273 114.196 74.5909 113.923 74.4545L115.287 69.7273C116.59 70.0606 117.741 70.1818 118.741 70.0909C119.741 70 120.628 69.553 121.401 68.75C122.188 67.9621 122.908 66.6818 123.56 64.9091L124.56 62.1818L111.651 27.0909H117.469L127.105 54.9091H127.469L137.105 27.0909H142.923L128.105 67.0909C127.438 68.8939 126.613 70.3864 125.628 71.5682C124.643 72.7652 123.499 73.6515 122.196 74.2273C120.908 74.803 119.454 75.0909 117.832 75.0909ZM172.003 47.7273V27.0909H177.366V62H172.003V56.0909H171.639C170.821 57.8636 169.548 59.3712 167.821 60.6136C166.094 61.8409 163.912 62.4545 161.276 62.4545C159.094 62.4545 157.154 61.9773 155.457 61.0227C153.76 60.053 152.427 58.5985 151.457 56.6591C150.488 54.7045 150.003 52.2424 150.003 49.2727V27.0909H155.366V48.9091C155.366 51.4545 156.079 53.4848 157.503 55C158.942 56.5152 160.776 57.2727 163.003 57.2727C164.336 57.2727 165.692 56.9318 167.071 56.25C168.465 55.5682 169.632 54.5227 170.571 53.1136C171.526 51.7045 172.003 49.9091 172.003 47.7273ZM192.281 62.7273C190.524 62.7273 189.016 62.1136 187.759 60.8864C186.516 59.6439 185.902 58.1364 185.918 56.3636C185.902 54.6364 186.516 53.1591 187.759 51.9318C189.016 50.7045 190.524 50.0909 192.281 50.0909C193.948 50.0909 195.418 50.7045 196.69 51.9318C197.978 53.1591 198.63 54.6364 198.645 56.3636C198.63 57.5455 198.319 58.6212 197.713 59.5909C197.122 60.5455 196.349 61.3106 195.395 61.8864C194.44 62.447 193.402 62.7273 192.281 62.7273ZM218.099 62.4545C215.615 62.4545 213.327 61.803 211.236 60.5C209.16 59.197 207.493 57.2197 206.236 54.5682C204.993 51.9167 204.372 48.5758 204.372 44.5455C204.372 40.3333 205.024 36.9091 206.327 34.2727C207.645 31.6364 209.342 29.7045 211.418 28.4773C213.509 27.25 215.705 26.6364 218.009 26.6364C219.736 26.6364 221.251 26.9394 222.554 27.5455C223.857 28.1364 224.948 28.9318 225.827 29.9318C226.705 30.9167 227.372 32 227.827 33.1818H228.009V15.4545H240.554V62H228.099V56.2727H227.827C227.342 57.4545 226.645 58.5152 225.736 59.4545C224.842 60.3788 223.751 61.1136 222.463 61.6591C221.19 62.1894 219.736 62.4545 218.099 62.4545ZM222.736 52.8182C223.887 52.8182 224.872 52.4848 225.69 51.8182C226.524 51.1364 227.16 50.1818 227.599 48.9545C228.054 47.7121 228.281 46.2424 228.281 44.5455C228.281 42.8182 228.054 41.3409 227.599 40.1136C227.16 38.8712 226.524 37.9242 225.69 37.2727C224.872 36.6061 223.887 36.2727 222.736 36.2727C221.584 36.2727 220.599 36.6061 219.781 37.2727C218.978 37.9242 218.357 38.8712 217.918 40.1136C217.493 41.3409 217.281 42.8182 217.281 44.5455C217.281 46.2727 217.493 47.7576 217.918 49C218.357 50.2273 218.978 51.1742 219.781 51.8409C220.599 52.4924 221.584 52.8182 222.736 52.8182ZM263.44 62.6364C259.713 62.6364 256.501 61.9242 253.804 60.5C251.122 59.0606 249.054 57 247.599 54.3182C246.16 51.6212 245.44 48.3939 245.44 44.6364C245.44 41.0303 246.168 37.8788 247.622 35.1818C249.077 32.4848 251.13 30.3864 253.781 28.8864C256.433 27.3864 259.562 26.6364 263.168 26.6364C265.804 26.6364 268.19 27.0455 270.327 27.8636C272.463 28.6818 274.289 29.8712 275.804 31.4318C277.319 32.9773 278.486 34.8561 279.304 37.0682C280.122 39.2803 280.531 41.7727 280.531 44.5455V47.4545H249.349V40.5455H268.986C268.971 39.5455 268.713 38.6667 268.213 37.9091C267.728 37.1364 267.069 36.5379 266.236 36.1136C265.418 35.6742 264.486 35.4545 263.44 35.4545C262.425 35.4545 261.493 35.6742 260.645 36.1136C259.796 36.5379 259.115 37.1288 258.599 37.8864C258.099 38.6439 257.834 39.5303 257.804 40.5455V48C257.804 49.1212 258.039 50.1212 258.509 51C258.978 51.8788 259.652 52.5682 260.531 53.0682C261.41 53.5682 262.471 53.8182 263.713 53.8182C264.577 53.8182 265.365 53.697 266.077 53.4545C266.804 53.2121 267.425 52.8636 267.94 52.4091C268.455 51.9394 268.834 51.3788 269.077 50.7273H280.531C280.137 53.1515 279.205 55.2576 277.736 57.0455C276.266 58.8182 274.319 60.197 271.895 61.1818C269.486 62.1515 266.668 62.6364 263.44 62.6364ZM319.957 27.0909L308.23 62H293.685L281.957 27.0909H295.139L300.776 50.1818H301.139L306.776 27.0909H319.957Z" fill="black"/>
</g>
<defs>
<clipPath id="clip0_33_18">
<rect width="323" height="77" fill="white"/>
</clipPath>
</defs>
</svg>
